<?xml version="1.0" encoding="UTF-8"?>
<svg id="Camada_2" data-name="Camada 2" xmlns="http://www.w3.org/2000/svg" viewBox="0 0 451.23 450.89">
  <g id="Plano_de_Fundo_copiar_Imagem" data-name="Plano de Fundo copiar Imagem">
    <path d="M203.42,259.58c-35.69,14.68-69.71,29.36-104.43,42.59-24.5,9.33-49.88,16.67-74.99,24.77-3,.99-6.43,1.38-9.61,1.15-7.05-.46-9.43-5.05-5.82-10.7,1.15-1.76,2.56-3.67,4.41-4.74,29.08-17.74,58.34-35.32,88.21-51.84-18.68,27.3-53.05,35.55-77.02,56.5,60.1-16.44,116.41-41.44,172.9-65.37-3-5.66-5.2-11.01-8.46-15.75-1.76-2.45-5.02-4.28-8.02-5.58-52.35-22.48-104.78-44.65-157.04-67.21-6.96-2.98-13.48-7.26-19.39-11.93-2.64-2.14-4.67-6.88-4.05-9.86,.44-1.91,6.52-4.59,9.43-4.05,19.65,3.75,39.22,7.8,58.52,12.92,4.41,1.15,7.49,6.88,12.6,11.93-22.3-5.58-42.48-10.63-62.66-15.67-.35,.92-.71,1.84-1.15,2.75,53.93,29.67,112.27,50.85,168.76,73.4,6.08-6.88,12.07-12.92,17.18-19.65,1.85-2.37,1.94-6.12,2.2-9.33,4.05-52.15,7.67-104.37,12.07-156.52,.88-10.09,3.79-20.11,6.87-29.9,.97-2.98,5.46-4.97,8.28-7.49,2.64,2.75,7.23,5.2,7.67,8.26,3.17,20.49,6.87,41.06,7.67,61.7,1.67,40.6,1.76,81.2,2.2,121.8,0,6.35,.88,11.24,6.87,15.52,4.23,2.98,6.79,7.88,10.66,12.54,54.37-26,109.28-52.15,160.39-84.57l-1.06-2.6c-9.69,2.98-19.48,5.89-29.17,9.1-10.05,3.36-20,7.03-29.87,10.7-9.87,3.67-19.65,7.49-29.52,11.24-.71-.76-1.41-1.53-2.12-2.29,5.11-4.21,9.52-10.09,15.42-12.31,25.03-9.1,50.5-17.05,75.79-25.31,3-.99,6.43-1.38,9.61-1.15,7.05,.38,9.87,5.12,5.9,10.55-2.47,3.44-5.82,6.65-9.52,8.79-37.98,21.26-76.14,42.28-114.39,63.23-8.37,4.59-17.18,8.41-25.82,12.62-7.49,3.59-16.48,5.73-22.12,11.01-5.38,5.05-7.31,13.3-11.19,20.95,57.28,19.57,114.12,39.53,173.34,52.3,.53-.92,.97-1.91,1.5-2.83-19.83-9.79-39.74-19.57-59.66-29.36,.18-.61,.35-1.22,.53-1.91,10.75,2.52,22.03,3.98,32.17,7.95,12.16,4.82,23.62,11.32,34.55,18.27,4.41,2.83,9.96,9.33,9.08,12.85-1.67,6.81-10.05,5.43-15.86,3.98-32.17-8.18-64.42-16.06-96.23-25.31-27.14-7.95-53.67-17.74-80.55-26.68-3-.99-5.99-1.84-10.05-3.13-.79,15.67-1.15,30.66-2.47,45.49-3.7,41.06-7.67,82.04-11.81,123.03-.62,6.19-2.29,12.54-4.76,18.35-1.32,3.21-5.2,5.43-7.93,8.1-2.91-2.83-7.58-5.35-8.37-8.64-2.73-12-5.38-24.24-5.9-36.47-1.85-45.11-2.82-90.22-4.05-135.26-.09-3.29,0-6.58,0-10.86l.26-.08Zm11.19-62.16c6.08-.31,10.93-1.22,15.6-.69,8.46,.92,10.49-2.37,10.22-9.63-1.59-48.02-2.73-96.03-4.14-144.05-.09-4.51-.97-8.95-1.67-13.38-.71-4.36-1.5-8.79-2.29-13.15-13.13,59.95-15.16,120.43-17.71,180.98v-.08Zm7.14,237.11c12.25-57.27,14.01-115.23,16.92-172.88-9.17-.46-17.01-.76-25.56-1.22,0,58.19-.88,116.3,8.64,174.1Zm9.52-217.45c8.7-.87,12.93-3.36,12.69-7.49h-34.72c-2.2,11.93,9.78,3.59,13.31,9.71v32.19c6.35,2.14,8.99,.76,8.81-5.12-.26-9.56,0-19.04,0-29.21l-.09-.08Z"/>
  </g>
</svg>